<?xml version="1.0" encoding="UTF-8"?>
<svg xmlns="http://www.w3.org/2000/svg" viewBox="0 0 512 512" width="512" height="512">
<path d="M272.01 160.15C272.01 170.74 272.01 181.33 272.01 191.92C281.12 192.45 290.37 192 299.48 192C316.94 192 334.4 192 351.85 192C360.79 192 370.18 191.19 378.95 193.19C395.06 196.86 409.01 209.82 413.84 225.62C419.67 244.73 413.3 268.32 416.21 287.8C422.72 288.98 429.85 287.66 436.49 288.15C447.41 288.97 458.23 294.35 465.91 302.09C480.09 316.37 480 331.98 480 350.92C480 372.76 480.51 391.02 461.63 405.76C447.16 417.05 433.26 415.42 416.01 416.07C416.01 426.61 416.01 437.16 416.01 447.71C423.17 449.29 431.04 446.4 438.06 449.16C449.64 453.71 450.97 469.49 441.52 476.82C435.9 481.18 428.19 480 421.52 480C408.12 480 394.72 480 381.31 480C375.2 480 367.47 481.29 361.75 478.73C349.32 473.16 348.74 454.29 361.95 449.16C368.99 446.42 376.83 449.32 383.99 447.71C383.99 437.17 383.99 426.63 383.99 416.09C365.69 415.16 354.06 417.4 338.4 405.76C319.79 391.93 320 372.81 320 351.85C320 332.64 319.62 316.58 334.1 302.07C341.8 294.36 352.63 288.95 363.54 288.15C370.16 287.66 377.3 289 383.79 287.8C384.47 283.27 384 278.36 384 273.77C384 264.88 384 256 384 247.12C384 239.43 384.14 232.39 377.57 227.22C372.36 223.11 365.56 224 359.34 224C347.02 224 334.71 224 322.4 224C276.73 224 231.06 224 185.4 224C174.33 224 163.26 224 152.2 224C145.86 224 139.42 223.29 134.12 227.42C127.99 232.2 128 239.05 128 246.18C128 255.38 128 264.57 128 273.77C128 278.36 127.53 283.27 128.21 287.8C134.88 289.03 142.12 287.52 148.91 288.19C159.73 289.26 170.22 294.37 177.89 302.07C192.1 316.33 192 331.99 192 350.92C192 372.77 192.51 391.04 173.61 405.77C159.01 417.16 145.34 415.21 128.01 416.09C128.01 426.63 128.01 437.17 128.01 447.71C135.17 449.32 143.01 446.42 150.04 449.16C161.67 453.68 162.95 469.52 153.5 476.83C147.88 481.19 140.15 480 133.49 480C120.09 480 106.69 480 93.28 480C87.17 480 79.45 481.29 73.73 478.73C61.31 473.16 60.67 453.79 74.24 449.06C81.26 446.62 88.9 449.27 96 447.71C96 437.27 96 426.82 96 416.38C89.75 414.59 82.04 416.44 75.51 415.84C65.99 414.96 56.35 410.94 49.1 404.68C31.67 389.66 32 372.26 32 350.92C32 330.37 32.19 311.88 50.29 298.31C57.56 292.86 66.34 288.84 75.51 288.15C82.15 287.65 89.28 288.98 95.79 287.8C98.7 268.32 92.33 244.73 98.16 225.62C103.03 209.63 117.21 196.68 133.5 193.14C142.17 191.26 151.33 192 160.15 192C177.6 192 195.06 192 212.52 192C221.63 192 230.88 192.45 239.99 191.92C239.99 181.33 239.99 170.74 239.99 160.15C234.65 159.55 229.11 160.07 223.74 159.99C212.83 159.82 202.98 156.07 194.27 149.65C176.51 136.54 176 118.01 176 97.96C176 76.18 175.43 58.69 193.13 43.27C206.11 31.97 221.93 32 238.23 32C247.27 32 256.31 32 265.35 32C276.27 32 288.33 30.59 299 33.2C316.59 37.5 330.83 51.74 334.85 69.44C336.97 78.78 336 88.9 336 98.43C336 114.26 335.78 128.68 325.69 141.7C317.88 151.8 305.56 158.49 292.94 159.8C286 160.52 278.93 159.38 272.01 160.15Z" fill="#000000" fill-rule="evenodd" stroke="#000000" stroke-width="0.25" stroke-linejoin="round"/>
</svg>
